<svg xmlns="http://www.w3.org/2000/svg" width="420" height="560" viewBox="0 0 420 560" font-family="system-ui, -apple-system, sans-serif"><defs><marker id="arrow" viewBox="0 0 10 10" refX="9" refY="5" markerWidth="7" markerHeight="7" orient="auto-start-reverse"><path d="M0 0 L10 5 L0 10 z" fill="#868e96"/></marker><marker id="cancel" viewBox="0 0 10 10" refX="9" refY="5" markerWidth="7" markerHeight="7" orient="auto-start-reverse"><path d="M0 0 L10 5 L0 10 z" fill="#e03131"/></marker><filter id="shadow" x="-10%" y="-10%" width="130%" height="130%"><feDropShadow dx="2" dy="3" stdDeviation="2" flood-opacity="0.2"/></filter></defs><rect class="background" width="100%" height="100%" fill="#ffffff"/><path class="arrow" d="M180 70 L240 70" fill="none" stroke="#868e96" stroke-width="1.5" marker-end="url(#arrow)"/><path class="arrow" d="M180 350 L210 350 L210 210 L240 210" fill="none" stroke="#868e96" stroke-width="1.5" marker-end="url(#arrow)"/><path class="arrow" d="M180 490 L210 490 L210 350 L240 350" fill="none" stroke="#868e96" stroke-width="1.5" marker-end="url(#arrow)"/><path class="arrow" d="M180 490 L240 490" fill="none" stroke="#868e96" stroke-width="1.5" marker-end="url(#arrow)"/><g class="event" data-line="3"><rect x="30" y="20" width="150" height="100" fill="#ffa94d" filter="url(#shadow)"/><text x="105" y="74.55" text-anchor="middle" font-size="13" fill="#212529"><tspan x="105" dy="0">BookBorrowed</tspan></text></g><g class="event" data-line="4"><rect x="240" y="20" width="150" height="100" fill="#ffa94d" filter="url(#shadow)"/><text x="315" y="74.55" text-anchor="middle" font-size="13" fill="#212529"><tspan x="315" dy="0">DueDateSet</tspan></text></g><g class="event" data-line="6"><rect x="30" y="160" width="150" height="100" fill="#ffa94d" filter="url(#shadow)"/><text x="105" y="214.55" text-anchor="middle" font-size="13" fill="#212529"><tspan x="105" dy="0">LoanRenewed</tspan></text></g><g class="event" data-line="10"><rect x="30" y="300" width="150" height="100" fill="#ffa94d" filter="url(#shadow)"/><text x="105" y="346.55" text-anchor="middle" font-size="13" fill="#212529"><tspan x="105" dy="0">OverdueReminder</tspan><tspan x="105" dy="16">Sent</tspan></text></g><g class="event" data-line="11"><rect x="240" y="160" width="150" height="100" fill="#ffa94d" filter="url(#shadow)"/><text x="315" y="214.55" text-anchor="middle" font-size="13" fill="#212529"><tspan x="315" dy="0">LateFeeCharged</tspan></text></g><g class="event" data-line="14"><rect x="30" y="440" width="150" height="100" fill="#ffa94d" filter="url(#shadow)"/><text x="105" y="494.55" text-anchor="middle" font-size="13" fill="#212529"><tspan x="105" dy="0">BookReturned</tspan></text></g><g class="event" data-line="15"><rect x="240" y="300" width="150" height="100" fill="#ffa94d" filter="url(#shadow)"/><text x="315" y="354.55" text-anchor="middle" font-size="13" fill="#212529"><tspan x="315" dy="0">LoanClosed</tspan></text></g><g class="event" data-line="17"><rect x="240" y="440" width="150" height="100" fill="#ffa94d" filter="url(#shadow)"/><text x="315" y="486.55" text-anchor="middle" font-size="13" fill="#212529"><tspan x="315" dy="0">NextMember</tspan><tspan x="315" dy="16">Notified</tspan></text></g></svg>
